<svg width="400" height="120" viewBox="0 0 400 120" xmlns="http://www.w3.org/2000/svg">
  <!-- Exact recreation of the returnit logo from the provided image -->
  
  <!-- "ReturnIt" text - matching the exact styling -->
  <text x="20" y="80" font-family="Arial, Helvetica, sans-serif" font-size="48" font-weight="700" fill="#1A3B5C">
    ReturnIt
  </text>
  
  <!-- 3D Box Icon - positioned to match the image exactly -->
  <g transform="translate(300, 20)">
    <!-- Box structure matching the image proportions -->
    <!-- Back top edge -->
    <path d="M10 30 L50 15 L90 30" 
          fill="none" 
          stroke="#1A3B5C" 
          stroke-width="4" 
          stroke-linecap="round"
          stroke-linejoin="round"/>
    
    <!-- Front top edge -->
    <path d="M10 50 L50 35 L90 50" 
          fill="none" 
          stroke="#1A3B5C" 
          stroke-width="4" 
          stroke-linecap="round"
          stroke-linejoin="round"/>
    
    <!-- Left face -->
    <path d="M10 30 L10 50 L50 65 L50 45 Z" 
          fill="none" 
          stroke="#1A3B5C" 
          stroke-width="4" 
          stroke-linejoin="round"/>
    
    <!-- Right face -->
    <path d="M50 45 L50 65 L90 50 L90 30 Z" 
          fill="none" 
          stroke="#1A3B5C" 
          stroke-width="4" 
          stroke-linejoin="round"/>
    
    <!-- Top face -->
    <path d="M10 30 L50 15 L90 30 L50 45 Z" 
          fill="none" 
          stroke="#1A3B5C" 
          stroke-width="4" 
          stroke-linejoin="round"/>
    
    <!-- Front face -->
    <path d="M10 50 L50 35 L50 65 L10 80 Z" 
          fill="none" 
          stroke="#1A3B5C" 
          stroke-width="4" 
          stroke-linejoin="round"/>
    
    <!-- Vertical connecting lines -->
    <path d="M10 30 L10 50" 
          stroke="#1A3B5C" 
          stroke-width="4" 
          stroke-linecap="round"/>
    <path d="M50 15 L50 35" 
          stroke="#1A3B5C" 
          stroke-width="4" 
          stroke-linecap="round"/>
    <path d="M90 30 L90 50" 
          stroke="#1A3B5C" 
          stroke-width="4" 
          stroke-linecap="round"/>
    
    <!-- Small circular dot on front face -->
    <circle cx="35" cy="55" r="3" fill="#1A3B5C"/>
  </g>
</svg>